<svg width="125" height="39" viewBox="0 0 125 39" fill="none" xmlns="http://www.w3.org/2000/svg">
<path d="M35.9739 27.4399C35.7772 26.977 35.5927 26.4905 35.396 26.0751L34.4863 24.0934L34.4494 24.0578C31.7446 18.3616 28.8555 12.5705 25.7942 6.87429L25.6713 6.63695C25.3639 6.0792 25.0566 5.46211 24.7369 4.8925C24.3435 4.21608 23.9624 3.49219 23.3354 2.8039C22.7242 2.08373 21.955 1.5035 21.0833 1.10508C20.2116 0.706665 19.2592 0.5 18.2947 0.5C17.3303 0.5 16.3778 0.706665 15.5061 1.10508C14.6344 1.5035 13.8653 2.08373 13.2541 2.8039C12.6763 3.49219 12.246 4.21608 11.8525 4.8925C11.5452 5.50958 11.2378 6.1148 10.9182 6.67255L10.7952 6.90989C7.78314 12.6061 4.84481 18.3972 2.14007 24.0934L2.06631 24.1646C1.79584 24.7816 1.47618 25.4225 1.16883 26.1107C0.97212 26.5261 0.775412 26.977 0.578704 27.4755C0.0476323 28.7806 -0.121956 30.1968 0.0866538 31.5844C0.295263 32.9721 0.87487 34.2833 1.76835 35.3889C2.66183 36.4945 3.83835 37.3563 5.18195 37.8893C6.52555 38.4224 7.98986 38.6083 9.43057 38.4287C10.8118 38.2532 12.1418 37.8091 13.3401 37.1234C14.9384 36.2571 16.4752 34.9992 18.1964 33.1835C19.9176 34.9992 21.4912 36.2571 23.0526 37.1352C24.5541 37.9859 26.2545 38.4554 27.9949 38.4999C30.0104 38.508 31.9608 37.812 33.4861 36.5403C35.0114 35.2687 36.0086 33.5073 36.2935 31.5814C36.6228 30.1975 36.5114 28.7498 35.9739 27.428V27.4399ZM18.3193 29.4098C16.2047 26.799 14.8277 24.4019 14.3606 22.3489C14.167 21.5881 14.1253 20.7988 14.2376 20.023C14.3237 19.4177 14.5573 18.8837 14.8769 18.4328C15.6146 17.4003 16.9055 16.7595 18.3193 16.7595C18.9907 16.7397 19.6568 16.8812 20.2576 17.1711C20.8584 17.4611 21.3753 17.8906 21.7617 18.4209C22.0814 18.8956 22.3149 19.4177 22.3887 20.023C22.5117 20.7113 22.4625 21.5063 22.2658 22.3489C21.7986 24.3663 20.4216 26.7872 18.3193 29.4098ZM33.9822 31.1661C33.8425 32.1439 33.4398 33.0693 32.8143 33.8501C32.1887 34.6309 31.3621 35.2398 30.4169 35.6162C29.4825 35.996 28.4498 36.1028 27.4417 35.996C26.4581 35.8773 25.4746 35.5688 24.4664 34.9992C22.7926 34.0005 21.2875 32.7598 20.0036 31.3204C22.5854 28.2349 24.1468 25.4225 24.7369 22.9185C25.0197 21.7318 25.0566 20.6638 24.9336 19.6788C24.7801 18.7452 24.4194 17.8547 23.8763 17.0681C23.2562 16.2151 22.4285 15.5223 21.4659 15.0505C20.5034 14.5787 19.4355 14.3424 18.3562 14.3624C16.0818 14.3624 14.0532 15.383 12.8238 17.0562C12.2703 17.8408 11.9127 18.7385 11.7788 19.6788C11.6189 20.6756 11.6558 21.7793 11.9755 22.9185C12.5656 25.4225 14.1639 28.2705 16.7088 31.3441C15.4467 32.8111 13.9381 34.0627 12.246 35.0466C11.2255 35.6162 10.2543 35.9129 9.27074 36.0316C7.7412 36.2207 6.19613 35.8194 4.97139 34.915C3.74665 34.0106 2.94123 32.6762 2.7302 31.2017C2.60726 30.2523 2.69332 29.303 3.08673 28.2349C3.20967 27.8552 3.39409 27.4755 3.5908 27.0245C3.86127 26.4074 4.18092 25.7666 4.48828 25.1258L4.53745 25.0427C7.19301 19.3821 10.0945 13.6029 13.1066 7.94232L13.2295 7.70498C13.5368 7.13537 13.8442 6.53015 14.1639 5.96053C14.4835 5.35531 14.8277 4.77383 15.2703 4.29915C15.6534 3.85772 16.1321 3.50272 16.6727 3.25914C17.2133 3.01556 17.8026 2.88933 18.3992 2.88933C18.9958 2.88933 19.5851 3.01556 20.1257 3.25914C20.6663 3.50272 21.145 3.85772 21.5281 4.29915C21.9584 4.77383 22.3149 5.35531 22.6346 5.96053C22.942 6.53015 23.2493 7.14723 23.569 7.70498L23.6919 7.94232C26.6917 13.6029 29.5931 19.3821 32.2979 25.0427L32.3348 25.0783C32.6544 25.6954 32.9249 26.3837 33.2322 26.977C33.429 27.4399 33.6257 27.8077 33.7486 28.1993C33.9822 29.2674 34.1051 30.2167 33.9822 31.1661ZM51.0958 29.1487C50.1694 29.1618 49.2518 28.9734 48.4111 28.5974C47.5704 28.2215 46.8282 27.6677 46.2396 26.977C44.9168 25.5055 44.2147 23.6081 44.2725 21.6606C44.2523 19.6708 44.977 17.7407 46.3133 16.2255C46.9315 15.5261 47.701 14.966 48.5676 14.5846C49.4343 14.2033 50.377 14.0099 51.3294 14.0182C52.2256 13.9946 53.1132 14.1913 53.909 14.5898C54.7047 14.9884 55.3824 15.5758 55.8783 16.2967L56.0012 14.4336H59.5911V28.769H55.9889L55.866 26.6804C55.3547 27.4501 54.6481 28.081 53.8133 28.513C52.9784 28.945 52.0429 29.1638 51.0958 29.1487ZM52.0302 25.731C52.7432 25.731 53.3702 25.5411 53.9604 25.197C54.5013 24.8172 54.9439 24.3188 55.2881 23.7136C55.5955 23.1084 55.7553 22.3845 55.7553 21.5775C55.8033 20.8767 55.6619 20.1758 55.3451 19.5434C55.0283 18.9111 54.547 18.3689 53.9481 17.97C53.3726 17.6239 52.7082 17.4404 52.0302 17.4404C51.3521 17.4404 50.6877 17.6239 50.1123 17.97C49.5713 18.3497 49.1287 18.8481 48.7845 19.4533C48.4594 20.1208 48.2994 20.8521 48.3173 21.5894C48.2694 22.2903 48.4107 22.9912 48.7275 23.6235C49.0443 24.2559 49.5257 24.798 50.1246 25.197C50.7024 25.5411 51.3294 25.731 52.0302 25.731ZM65.7383 10.5649C65.7383 10.9803 65.6645 11.36 65.4678 11.6686C65.2711 11.9652 65.0006 12.2382 64.6441 12.4281C64.2875 12.6179 63.9064 12.6891 63.513 12.6891C63.1196 12.6891 62.7262 12.6179 62.3696 12.4281C62.0324 12.2469 61.7489 11.9854 61.5459 11.6686C61.3555 11.3305 61.2621 10.9495 61.2754 10.5649C61.2754 10.1377 61.3615 9.75798 61.5459 9.4613C61.7426 9.10529 62.0254 8.89169 62.3696 8.70181C62.7262 8.51194 63.1073 8.42887 63.513 8.42887C63.9043 8.42017 64.2913 8.50963 64.6361 8.68852C64.9809 8.8674 65.2717 9.12959 65.4801 9.44944C65.659 9.79542 65.7476 10.1784 65.7383 10.5649ZM61.5582 28.7215V14.4099H65.4678V28.7452H61.5459L61.5582 28.7215ZM75.9179 18.1598V18.2073C75.7335 18.1242 75.4876 18.0886 75.3032 18.053C75.0573 18.0056 74.8606 18.0056 74.627 18.0056C73.5328 18.0056 72.7091 18.3141 72.1682 18.9549C71.578 19.6076 71.3076 20.5214 71.3076 21.6962V28.7334H67.3857V14.398H70.9879L71.1108 16.5697C71.5043 15.8102 71.9714 15.2405 72.6353 14.8133C73.2957 14.3982 74.0731 14.1909 74.8606 14.22C75.1434 14.22 75.4138 14.2437 75.6474 14.2912C75.7704 14.3268 75.8441 14.3268 75.9179 14.3624V18.1598ZM77.4916 28.7215V8.52381H81.4011V16.2374C81.9544 15.5491 82.5814 15.0151 83.3682 14.5997C84.6139 14.0102 86.029 13.843 87.3851 14.125C88.7413 14.4071 89.9595 15.122 90.8431 16.1543C92.1688 17.6289 92.8711 19.5311 92.8102 21.4826C92.8305 23.4725 92.1057 25.4025 90.7694 26.9177C90.1512 27.6171 89.3817 28.1772 88.5151 28.5586C87.6484 28.9399 86.7057 29.1333 85.7533 29.125C84.8571 29.1487 83.9695 28.952 83.1737 28.5534C82.378 28.1548 81.7003 27.5674 81.2044 26.8465L81.0815 28.7096L77.4916 28.7452V28.7215ZM85.0525 25.731C85.7533 25.731 86.3803 25.5411 86.9704 25.197C87.5114 24.8172 87.954 24.3188 88.2982 23.7136C88.6179 23.1084 88.7654 22.3845 88.7654 21.5775C88.7654 20.7825 88.6179 20.0586 88.2982 19.4533C87.9754 18.8698 87.5218 18.363 86.9704 17.97C86.395 17.6239 85.7306 17.4404 85.0525 17.4404C84.3745 17.4404 83.7101 17.6239 83.1346 17.97C82.5814 18.3497 82.1511 18.8481 81.7946 19.4533C81.4694 20.1208 81.3095 20.8521 81.3274 21.5894C81.2794 22.2903 81.4208 22.9912 81.7376 23.6235C82.0544 24.2559 82.5357 24.798 83.1346 25.197C83.7125 25.5411 84.3395 25.731 85.0525 25.731ZM94.2855 28.7334V14.398H97.8877L98.0107 16.2611C98.4634 15.5469 99.1055 14.9625 99.8706 14.5681C100.636 14.1738 101.496 13.984 102.363 14.0182C103.354 14.0017 104.328 14.2676 105.163 14.7826C105.999 15.2976 106.658 16.0389 107.059 16.9138C107.49 17.8157 107.723 18.9312 107.723 20.1772V28.769H103.801V20.6756C103.801 19.6788 103.568 18.8956 103.101 18.3141C102.633 17.7445 101.994 17.4359 101.183 17.4359C100.592 17.4359 100.076 17.5546 99.6212 17.8157C99.1909 18.0886 98.8344 18.4328 98.5639 18.9193C98.2905 19.4111 98.1548 19.9634 98.1705 20.5214V28.7334H94.2855ZM109.678 28.7334V8.51194H113.6V16.2255C114.131 15.5334 114.822 14.9703 115.618 14.581C116.414 14.1916 117.293 13.9868 118.186 13.9826C119.112 13.9696 120.03 14.158 120.87 14.5339C121.711 14.9099 122.453 15.4637 123.042 16.1543C124.358 17.6288 125.055 19.5252 124.997 21.4707C125.018 23.4608 124.293 25.3911 122.956 26.9058C122.338 27.6053 121.568 28.1654 120.701 28.5467C119.835 28.9281 118.892 29.1214 117.94 29.1131C117.044 29.1368 116.156 28.9401 115.36 28.5415C114.564 28.1429 113.887 27.5556 113.391 26.8346L113.28 28.6978L109.678 28.7334ZM117.276 25.731C117.989 25.731 118.616 25.5411 119.194 25.197C119.747 24.8172 120.177 24.3188 120.534 23.7136C120.841 23.1084 121.001 22.3845 121.001 21.5775C121.049 20.8767 120.908 20.1758 120.591 19.5434C120.274 18.9111 119.793 18.3689 119.194 17.97C118.618 17.6239 117.954 17.4404 117.276 17.4404C116.598 17.4404 115.933 17.6239 115.358 17.97C114.817 18.3497 114.374 18.8481 114.03 19.4533C113.687 20.1148 113.526 20.8505 113.563 21.5894C113.515 22.2903 113.656 22.9912 113.973 23.6235C114.29 24.2559 114.771 24.798 115.37 25.197C115.948 25.5411 116.538 25.731 117.276 25.731Z" fill="white"/>
</svg>
