<svg xmlns="http://www.w3.org/2000/svg" xmlns:xlink="http://www.w3.org/1999/xlink" viewBox="0 0 80 80" version="1.1"><title>brand-development-1</title><g id="Icons" stroke="none" stroke-width="1" fill="none" fill-rule="evenodd"><g id="-Icons" transform="translate(-1341.000000, -169.000000)"><g id="Brand-Development" transform="translate(1341.000000, 164.000000)"><g id="brand-development-1" transform="translate(0.000000, 5.000000)"><rect id="Bound" x="0" y="0" width="80" height="80"/><g id="Group-137" fill-rule="nonzero"><path d="M40,-4.57763556e-05 C42.9853333,-4.57763556e-05 45.4054222,2.42003556 45.4054222,5.40536 C45.4054222,8.39068444 42.9853333,10.8107556 40,10.8107556 C37.0146667,10.8107556 34.5945778,8.39068444 34.5945778,5.40536 C34.5945778,2.42003556 37.0146667,-4.57763556e-05 40,-4.57763556e-05 Z" id="Path" fill="#FF8896"/><path d="M40,69.1891556 C42.9853333,69.1891556 45.4054222,71.6092444 45.4054222,74.5945778 C45.4054222,77.5799111 42.9853333,80 40,80 C37.0146667,80 34.5945778,77.5799111 34.5945778,74.5945778 C34.5945778,71.6092444 37.0146667,69.1891556 40,69.1891556 Z" id="Path" fill="#FF8896"/><path d="M74.5946667,34.5945778 C77.58,34.5945778 80.0000889,37.0146667 80.0000889,40 C80.0000889,42.9853333 77.58,45.4054222 74.5946667,45.4054222 C71.6093333,45.4054222 69.1892444,42.9853333 69.1892444,40 C69.1892444,37.0146667 71.6093333,34.5945778 74.5946667,34.5945778 Z" id="Path" fill="#FF8896"/><path d="M5.40540444,34.5945778 C8.39072889,34.5945778 10.8108444,37.0146667 10.8108444,40 C10.8108444,42.9853333 8.39072889,45.4054222 5.40540444,45.4054222 C2.42008,45.4054222 0,42.9853333 0,40 C0,37.0146667 2.42008,34.5945778 5.40540444,34.5945778 Z" id="Path" fill="#FF8896"/><path d="M14.0538667,8.64839111 C17.0392,8.64839111 19.4592889,11.0684444 19.4592889,14.0537778 C19.4592889,17.0391111 17.0392,19.4592 14.0538667,19.4592 C11.0685333,19.4592 8.64843556,17.0391111 8.64843556,14.0537778 C8.64843556,11.0684444 11.0685333,8.64839111 14.0538667,8.64839111 Z" id="Path" fill="#191919"/><path d="M14.0538667,60.5407111 C17.0392,60.5407111 19.4592889,62.9608 19.4592889,65.9461333 C19.4592889,68.9314667 17.0392,71.3515556 14.0538667,71.3515556 C11.0685333,71.3515556 8.64843556,68.9314667 8.64843556,65.9461333 C8.64843556,62.9608 11.0685333,60.5407111 14.0538667,60.5407111 Z" id="Path" fill="#191919"/><path d="M65.9457778,60.5407111 C68.9311111,60.5407111 71.3512,62.9608 71.3512,65.9461333 C71.3512,68.9314667 68.9311111,71.3515556 65.9457778,71.3515556 C62.9604444,71.3515556 60.5403556,68.9314667 60.5403556,65.9461333 C60.5403556,62.9608 62.9604444,60.5407111 65.9457778,60.5407111 Z" id="Path" fill="#191919"/><path d="M65.9457778,8.64839111 C68.9311111,8.64839111 71.3512,11.0684444 71.3512,14.0537778 C71.3512,17.0391111 68.9311111,19.4592 65.9457778,19.4592 C62.9604444,19.4592 60.5403556,17.0391111 60.5403556,14.0537778 C60.5403556,11.0684444 62.9604444,8.64839111 65.9457778,8.64839111 Z" id="Path" fill="#191919"/><polygon id="Path" fill="#191919" points="56.2162667 23.7838222 23.7838222 23.7838222 23.7838222 56.2162667 56.2162667 56.2162667"/><polygon id="Path" fill="#FF8896" points="49.1051556 31.3273778 31.3273778 31.3273778 31.3273778 49.1051556 49.1051556 49.1051556"/></g></g></g></g></g></svg>