<svg width="125" height="36" viewBox="0 0 125 36" fill="none" xmlns="http://www.w3.org/2000/svg">
<path d="M13.5368 5.91394V15.988H4.35783V5.91394H0V29.9616H4.35783V20.2147H13.5368V29.9616H17.8947V5.91394H13.5368Z" fill="#76BD6D"/>
<path d="M31.8415 22.1882C31.8415 23.1519 31.4616 24.0762 30.7855 24.7577C30.1094 25.4392 29.1924 25.822 28.2363 25.822C27.2801 25.822 26.3631 25.4392 25.687 24.7577C25.0109 24.0762 24.6311 23.1519 24.6311 22.1882V11.8882H20.4974V22.1882C20.4974 24.255 21.312 26.2371 22.7619 27.6985C24.2118 29.16 26.1783 29.981 28.2288 29.981C30.2793 29.981 32.2458 29.16 33.6957 27.6985C35.1456 26.2371 35.9602 24.255 35.9602 22.1882V11.8882H31.8415V22.1882Z" fill="#76BD6D"/>
<path d="M62.4683 12.9492C62.4683 10.838 63.854 10.1687 65.3721 10.1687C66.5955 10.1687 68.2118 11.107 69.2687 12.2455L71.9761 9.0302C70.6245 7.18799 67.883 5.91394 65.6389 5.91394C61.1551 5.91394 57.9118 8.56104 57.9118 12.9492C57.9118 21.0906 67.7848 18.5081 67.7848 23.0641C67.7848 24.4694 66.4311 25.7112 64.881 25.7112C62.4362 25.7112 61.6441 24.506 60.521 23.232L57.5168 26.3805C59.4385 28.7586 61.8085 29.9659 64.6482 29.9659C68.9079 29.9659 72.3348 27.2866 72.3348 23.0985C72.3348 14.0597 62.4618 16.8682 62.4618 12.9492" fill="#76BD6D"/>
<path d="M123.546 26.1201C121.103 26.1201 120.409 25.0548 120.409 23.4235V16.2032H124.206V12.5446H120.409V7.71741L116.218 9.61342V24.3209C116.218 28.0828 118.793 29.9788 122.325 29.9788C122.878 29.989 123.432 29.9443 123.977 29.8454L125 26.0512C124.539 26.0835 124.009 26.1158 123.546 26.1158" fill="#76BD6D"/>
<path d="M47.5754 12.0087C45.5278 12.0087 44.0994 12.607 42.7179 13.9736V6.05811H38.5779V20.729C38.5779 26.2212 42.5172 29.9831 46.9434 29.9831C51.8542 29.9831 56.1736 26.1545 56.1736 20.9981C56.1736 15.9062 52.198 12.0108 47.5754 12.0108V12.0087ZM47.5498 25.7844C46.6207 25.7844 45.7125 25.5067 44.9401 24.9864C44.1676 24.4662 43.5655 23.7267 43.21 22.8616C42.8545 21.9964 42.7615 21.0445 42.9427 20.126C43.124 19.2076 43.5713 18.364 44.2283 17.7018C44.8852 17.0397 45.7222 16.5887 46.6334 16.406C47.5446 16.2234 48.489 16.3171 49.3474 16.6755C50.2057 17.0338 50.9393 17.6407 51.4554 18.4193C51.9716 19.1979 52.2471 20.1133 52.2471 21.0497C52.2471 22.3054 51.7522 23.5097 50.8713 24.3976C49.9904 25.2855 48.7956 25.7844 47.5498 25.7844Z" fill="#76BD6D"/>
<path d="M92.5286 20.7786C92.5286 15.6136 88.2177 11.7936 83.2984 11.7936C78.8722 11.7936 74.9329 15.5555 74.9329 21.0477V35.7272H79.0729V27.801C80.4522 29.1654 81.8827 29.7658 83.9282 29.7658C88.5508 29.7658 92.5264 25.8727 92.5264 20.7786H92.5286ZM88.6085 20.727C88.6085 21.6634 88.333 22.5788 87.8168 23.3574C87.3007 24.136 86.567 24.7429 85.7087 25.1012C84.8504 25.4596 83.9059 25.5533 82.9947 25.3707C82.0835 25.188 81.2466 24.737 80.5896 24.0749C79.9327 23.4127 79.4853 22.5691 79.3041 21.6507C79.1228 20.7322 79.2159 19.7803 79.5714 18.9151C79.9269 18.05 80.529 17.3105 81.3015 16.7903C82.0739 16.27 82.9821 15.9923 83.9111 15.9923C85.1569 15.9923 86.3517 16.4912 87.2326 17.3791C88.1136 18.267 88.6085 19.4713 88.6085 20.727Z" fill="#76BD6D"/>
<path d="M105.903 11.5913V7.39896C106.453 7.14009 106.918 6.72918 107.245 6.21406C107.572 5.69895 107.747 5.10082 107.75 4.4893V4.39246C107.75 3.53629 107.413 2.7152 106.812 2.1098C106.212 1.5044 105.397 1.16429 104.547 1.16429H104.451C103.602 1.16429 102.787 1.5044 102.187 2.1098C101.586 2.7152 101.249 3.53629 101.249 4.39246V4.4893C101.252 5.10082 101.427 5.69895 101.754 6.21406C102.081 6.72918 102.546 7.14009 103.096 7.39896V11.5913C101.516 11.8349 100.028 12.4949 98.7826 13.5045L87.3766 4.54956C87.4574 4.25426 87.5004 3.9498 87.5048 3.64352C87.506 2.92409 87.2956 2.22044 86.9 1.62157C86.5045 1.0227 85.9416 0.555523 85.2827 0.279126C84.6237 0.00272897 83.8982 -0.0704696 83.1979 0.068789C82.4976 0.208048 81.8541 0.553507 81.3486 1.06147C80.8432 1.56944 80.4985 2.21708 80.3583 2.9225C80.2181 3.62791 80.2885 4.3594 80.5608 5.02444C80.8331 5.68947 81.2949 6.25819 81.8879 6.65863C82.4808 7.05908 83.1783 7.27328 83.8921 7.27413C84.5162 7.27132 85.1287 7.10362 85.6685 6.78776L96.9015 15.5963C95.8922 17.1329 95.3656 18.9403 95.3903 20.783C95.4151 22.6256 95.9901 24.418 97.0403 25.9265L93.6241 29.3699C93.3478 29.2809 93.06 29.2338 92.77 29.23C92.1841 29.2304 91.6114 29.4059 91.1243 29.7343C90.6373 30.0627 90.2578 30.5292 90.0338 31.075C89.8097 31.6207 89.7512 32.2211 89.8656 32.8004C89.98 33.3796 90.2623 33.9117 90.6766 34.3293C91.0909 34.7469 91.6188 35.0314 92.1935 35.1467C92.7682 35.2621 93.3639 35.2031 93.9053 34.9773C94.4467 34.7514 94.9096 34.3689 95.2354 33.878C95.5612 33.3871 95.7353 32.8099 95.7357 32.2192C95.7321 31.927 95.6853 31.6368 95.597 31.3584L98.9769 27.9516C100.079 28.8065 101.361 29.3957 102.724 29.6743C104.087 29.9528 105.495 29.9133 106.84 29.5586C108.185 29.204 109.433 28.5436 110.486 27.6282C111.539 26.7128 112.37 25.5666 112.916 24.2773C113.462 22.9881 113.708 21.59 113.635 20.1902C113.562 18.7904 113.172 17.4261 112.495 16.2016C111.818 14.9771 110.872 13.925 109.73 13.1259C108.587 12.3268 107.278 11.8018 105.903 11.5913ZM104.503 25.3777C103.578 25.3768 102.675 25.0998 101.906 24.5814C101.138 24.0631 100.539 23.3269 100.186 22.4657C99.8325 21.6046 99.7404 20.6572 99.9212 19.7432C100.102 18.8293 100.547 17.9899 101.201 17.3311C101.855 16.6723 102.688 16.2237 103.595 16.042C104.502 15.8602 105.442 15.9535 106.296 16.31C107.15 16.6665 107.88 17.2703 108.394 18.045C108.908 18.8197 109.182 19.7305 109.183 20.6624C109.183 21.9124 108.69 23.1112 107.813 23.9951C106.936 24.879 105.747 25.3755 104.507 25.3755" fill="#76BD6D"/>
</svg>
