<svg viewBox="0 0 1440 671" fill="none" xmlns="http://www.w3.org/2000/svg">
<g opacity="0.5" clip-path="url(#clip0_9480_169752)">
<g clip-path="url(#clip1_9480_169752)">
<path opacity="0.5" fill-rule="evenodd" clip-rule="evenodd" d="M1440.01 36.4405C1440.24 36.8817 1440.24 36.8828 1440.24 36.8828L1440.24 36.8858L1440.21 36.8972L1440.13 36.9415C1440.06 36.9806 1439.94 37.0386 1439.8 37.1149C1439.5 37.2674 1439.05 37.4932 1438.45 37.7874C1437.26 38.3757 1435.47 39.2373 1433.05 40.3333C1428.22 42.5252 1420.91 45.6543 1411 49.4081C1391.17 56.9157 1360.9 66.9219 1319.12 76.9267C1235.58 96.9365 1106.04 116.94 922.008 116.94V115.94C1105.97 115.94 1235.43 95.9445 1318.89 75.9543C1360.62 65.9591 1390.85 55.9653 1410.64 48.4729C1420.54 44.7267 1427.83 41.6058 1432.64 39.4227C1435.04 38.3311 1436.83 37.4741 1438.01 36.8905C1438.6 36.5987 1439.05 36.3753 1439.34 36.2251C1439.48 36.15 1439.59 36.0933 1439.67 36.0554L1439.75 36.013L1439.77 36.0025L1439.77 36C1439.77 36 1439.77 35.9993 1440.01 36.4405ZM1440.01 76.4402C1440.22 76.891 1440.22 76.892 1440.22 76.892L1440.22 76.8947L1440.2 76.9049L1440.11 76.9448C1440.04 76.9799 1439.92 77.0321 1439.78 77.1007C1439.48 77.238 1439.03 77.4412 1438.44 77.7058C1437.24 78.2352 1435.45 79.0106 1433.03 79.9969C1428.2 81.9694 1420.9 84.7853 1410.98 88.1635C1391.15 94.9199 1360.88 103.925 1319.11 112.929C1235.58 130.937 1106.04 143.94 922.008 143.94V142.94C1105.98 142.94 1235.44 129.943 1318.9 111.951C1360.63 102.955 1390.87 93.9606 1410.66 87.2169C1420.56 83.8451 1427.84 81.0361 1432.65 79.0711C1435.06 78.0886 1436.85 77.3171 1438.03 76.7918C1438.62 76.5291 1439.06 76.328 1439.36 76.1928C1439.5 76.1252 1439.61 76.0741 1439.68 76.04L1439.77 76.0018L1439.79 75.9923L1439.79 75.9901C1439.79 75.9901 1439.79 75.9895 1440.01 76.4402ZM1440.01 339.439C1440.02 339.439 1440.02 339.439 1440.02 338.939C1440.02 338.439 1440.02 338.439 1440.01 338.439H922.016V339.439H1440.01ZM1440.02 373.939C1440.02 374.439 1440.02 374.439 1440.01 374.439H922.016V373.439H1440.01C1440.02 373.439 1440.02 373.439 1440.02 373.939ZM1440.02 406.939C1440.02 407.439 1440.02 407.439 1440.01 407.439H922.016V406.439H1440.01C1440.02 406.439 1440.02 406.439 1440.02 406.939ZM1440.16 120.917C1440.16 120.917 1440.16 120.917 1440.01 120.441C1439.86 119.964 1439.86 119.965 1439.86 119.965L1439.85 119.966L1439.83 119.973L1439.75 119.998C1439.68 120.021 1439.57 120.055 1439.42 120.1C1439.13 120.191 1438.69 120.325 1438.09 120.5C1436.91 120.851 1435.12 121.365 1432.71 122.021C1427.9 123.331 1420.61 125.205 1410.71 127.453C1390.91 131.95 1360.68 137.948 1318.94 143.946C1235.46 155.942 1105.99 167.941 922.009 167.941V168.941C1106.03 168.941 1235.55 156.939 1319.08 144.936C1360.84 138.934 1391.11 132.931 1410.93 128.428C1420.85 126.177 1428.15 124.3 1432.98 122.986C1435.39 122.328 1437.18 121.812 1438.38 121.459C1438.97 121.283 1439.42 121.148 1439.71 121.056C1439.86 121.01 1439.97 120.976 1440.05 120.952L1440.13 120.926L1440.15 120.919L1440.16 120.917ZM1440.01 160.44C1440.11 160.929 1440.11 160.929 1440.11 160.929L1440.09 160.935L1440 160.952C1439.93 160.968 1439.82 160.991 1439.67 161.021C1439.37 161.082 1438.93 161.172 1438.33 161.29C1437.14 161.525 1435.35 161.869 1432.94 162.307C1428.11 163.183 1420.81 164.433 1410.9 165.934C1391.08 168.936 1360.82 172.937 1319.06 176.938C1235.54 184.939 1106.02 192.94 922.01 192.94V191.94C1106 191.94 1235.48 183.94 1318.96 175.942C1360.7 171.943 1390.94 167.944 1410.75 164.945C1420.65 163.446 1427.94 162.197 1432.76 161.323C1435.16 160.886 1436.95 160.543 1438.14 160.309C1438.73 160.192 1439.17 160.102 1439.47 160.042C1439.61 160.012 1439.72 159.989 1439.8 159.974L1439.88 159.956L1439.9 159.951C1439.91 159.951 1439.91 159.951 1440.01 160.44ZM1440.07 197.936C1440.07 197.936 1440.07 197.936 1440.01 197.44C1439.95 196.943 1439.95 196.943 1439.95 196.943L1439.84 196.956C1439.77 196.965 1439.66 196.978 1439.51 196.995C1439.22 197.028 1438.78 197.079 1438.18 197.145C1437 197.276 1435.21 197.47 1432.8 197.716C1427.98 198.208 1420.69 198.91 1410.78 199.754C1390.97 201.441 1360.73 203.691 1318.98 205.94C1235.49 210.44 1106 214.94 922.012 214.94V215.94C1106.02 215.94 1235.53 211.439 1319.04 206.939C1360.79 204.689 1391.05 202.438 1410.87 200.75C1420.78 199.906 1428.08 199.203 1432.9 198.71C1435.31 198.464 1437.1 198.271 1438.29 198.139C1438.89 198.073 1439.33 198.022 1439.63 197.988C1439.78 197.971 1439.89 197.958 1439.96 197.949L1440.07 197.936ZM1440.01 233.439C1440.06 233.938 1440.05 233.938 1440.05 233.938L1439.94 233.947C1439.87 233.953 1439.76 233.963 1439.61 233.975C1439.32 234 1438.87 234.036 1438.28 234.084C1437.09 234.179 1435.3 234.319 1432.89 234.497C1428.06 234.852 1420.76 235.36 1410.86 235.97C1391.04 237.189 1360.79 238.814 1319.03 240.439C1235.52 243.689 1106.02 246.939 922.012 246.939V245.939C1106.01 245.939 1235.5 242.689 1318.99 239.44C1360.74 237.815 1390.99 236.19 1410.79 234.972C1420.7 234.362 1427.99 233.855 1432.81 233.499C1435.22 233.322 1437.01 233.182 1438.2 233.087C1438.79 233.039 1439.23 233.003 1439.53 232.978L1439.86 232.951L1439.97 232.941C1439.97 232.941 1439.97 232.941 1440.01 233.439ZM1440.02 270.941C1440.02 270.941 1440.02 270.941 1440.01 270.441C1440 269.941 1440 269.941 1440 269.941L1439.56 269.953C1439.26 269.96 1438.82 269.972 1438.22 269.986C1437.04 270.016 1435.25 270.058 1432.84 270.113C1428.02 270.223 1420.72 270.379 1410.81 270.566C1391 270.941 1360.75 271.441 1319 271.941C1235.51 272.941 1106.01 273.941 922.011 273.941V274.941C1106.01 274.941 1235.51 273.941 1319.02 272.941C1360.77 272.441 1391.02 271.941 1410.83 271.566C1420.74 271.379 1428.04 271.222 1432.86 271.113C1435.27 271.058 1437.06 271.015 1438.25 270.986C1438.84 270.971 1439.29 270.96 1439.58 270.952L1440.02 270.941ZM1440.01 306.441C1440.01 306.441 1440.01 306.441 1440.01 305.941C1440.01 305.441 1440.01 305.441 1440.01 305.441H922.007V306.441H1440.01ZM1440.23 637.986C1440.23 637.987 1440.23 637.987 1440.02 638.438C1439.8 638.889 1439.8 638.889 1439.8 638.888L1439.79 638.886L1439.77 638.877L1439.69 638.838C1439.62 638.804 1439.51 638.753 1439.36 638.686C1439.07 638.55 1438.63 638.349 1438.04 638.087C1436.85 637.561 1435.07 636.79 1432.66 635.807C1427.85 633.842 1420.56 631.033 1410.67 627.662C1390.87 620.918 1360.64 611.923 1318.91 602.927C1235.45 584.935 1105.98 566.938 922.016 566.938V565.938C1106.05 565.938 1235.58 583.941 1319.12 601.949C1360.89 610.953 1391.16 619.959 1410.99 626.715C1420.91 630.093 1428.21 632.909 1433.04 634.882C1435.46 635.868 1437.25 636.643 1438.44 637.173C1439.04 637.437 1439.49 637.641 1439.78 637.778C1439.93 637.846 1440.04 637.899 1440.12 637.934L1440.2 637.974L1440.22 637.984L1440.23 637.986ZM1440.02 594.438C1440.17 593.962 1440.17 593.962 1440.17 593.961L1440.16 593.959L1440.14 593.953L1440.06 593.926C1439.98 593.903 1439.87 593.868 1439.72 593.822C1439.43 593.731 1438.98 593.596 1438.38 593.419C1437.19 593.067 1435.4 592.55 1432.98 591.893C1428.16 590.579 1420.85 588.702 1410.94 586.45C1391.11 581.947 1360.85 575.945 1319.09 569.943C1235.56 557.939 1106.04 545.938 922.017 545.938V546.938C1106 546.938 1235.47 558.937 1318.95 570.933C1360.68 576.931 1390.92 582.929 1410.72 587.426C1420.62 589.674 1427.91 591.547 1432.72 592.858C1435.13 593.513 1436.92 594.028 1438.1 594.378C1438.69 594.554 1439.14 594.688 1439.43 594.778C1439.58 594.823 1439.68 594.857 1439.76 594.88L1439.84 594.906L1439.86 594.912L1439.86 594.914C1439.86 594.914 1439.87 594.914 1440.02 594.438ZM1440.12 553.949C1440.12 553.95 1440.12 553.95 1440.02 554.439C1439.91 554.928 1439.91 554.928 1439.91 554.927L1439.89 554.922L1439.81 554.905C1439.73 554.89 1439.62 554.867 1439.48 554.837C1439.18 554.776 1438.74 554.687 1438.15 554.57C1436.96 554.336 1435.17 553.993 1432.77 553.556C1427.95 552.682 1420.66 551.432 1410.76 549.933C1390.95 546.935 1360.71 542.936 1318.97 538.937C1235.49 530.938 1106 522.939 922.019 522.939V521.939C1106.03 521.939 1235.55 529.939 1319.07 537.941C1360.82 541.942 1391.08 545.943 1410.91 548.944C1420.82 550.445 1428.12 551.696 1432.94 552.572C1435.36 553.01 1437.15 553.354 1438.34 553.589C1438.94 553.706 1439.38 553.796 1439.68 553.857C1439.83 553.888 1439.94 553.911 1440.01 553.926L1440.09 553.944L1440.12 553.949ZM1440.02 517.439C1440.08 516.943 1440.08 516.943 1440.07 516.943L1439.96 516.93C1439.89 516.921 1439.78 516.908 1439.63 516.891C1439.34 516.857 1438.89 516.806 1438.3 516.74C1437.11 516.608 1435.31 516.415 1432.9 516.168C1428.08 515.676 1420.78 514.972 1410.87 514.128C1391.05 512.441 1360.8 510.19 1319.04 507.94C1235.53 503.439 1106.02 498.939 922.016 498.939V499.939C1106.01 499.939 1235.5 504.439 1318.99 508.938C1360.73 511.188 1390.98 513.438 1410.79 515.125C1420.69 515.968 1427.98 516.671 1432.8 517.163C1435.21 517.409 1437 517.602 1438.19 517.734C1438.78 517.8 1439.22 517.85 1439.52 517.884C1439.66 517.901 1439.77 517.914 1439.85 517.923L1439.96 517.935C1439.96 517.936 1439.96 517.936 1440.02 517.439ZM1440.06 480.941C1440.06 480.941 1440.06 480.941 1440.02 481.439C1439.97 481.938 1439.97 481.937 1439.97 481.937L1439.86 481.928C1439.79 481.922 1439.68 481.913 1439.53 481.9C1439.24 481.876 1438.8 481.839 1438.2 481.792C1437.02 481.697 1435.23 481.557 1432.82 481.379C1428 481.024 1420.7 480.516 1410.8 479.907C1390.99 478.689 1360.74 477.064 1319 475.439C1235.5 472.189 1106.01 468.939 922.017 468.939V467.939C1106.02 467.939 1235.53 471.189 1319.04 474.44C1360.79 476.065 1391.04 477.69 1410.86 478.909C1420.77 479.519 1428.07 480.027 1432.89 480.382C1435.3 480.56 1437.09 480.7 1438.28 480.795C1438.88 480.843 1439.32 480.879 1439.62 480.904C1439.76 480.916 1439.88 480.925 1439.95 480.932L1440.06 480.941ZM1440.02 444.44C1440.03 443.94 1440.03 443.94 1440.03 443.94L1439.59 443.928C1439.3 443.921 1438.85 443.909 1438.26 443.895C1437.07 443.865 1435.28 443.823 1432.87 443.768C1428.05 443.658 1420.75 443.502 1410.84 443.315C1391.03 442.94 1360.78 442.44 1319.03 441.94C1235.52 440.94 1106.02 439.94 922.019 439.94V440.94C1106.02 440.94 1235.52 441.94 1319.01 442.94C1360.76 443.44 1391.01 443.939 1410.82 444.314C1420.73 444.502 1428.02 444.658 1432.84 444.768C1435.25 444.822 1437.04 444.865 1438.23 444.894C1438.83 444.909 1439.27 444.92 1439.56 444.928L1440 444.939C1440.01 444.939 1440.01 444.939 1440.02 444.44Z" fill="url(#paint0_linear_9480_169752)"/>
</g>
<path opacity="0.5" fill-rule="evenodd" clip-rule="evenodd" d="M0.239823 35.4405C0.00452857 35.8817 0.00668405 35.8828 0.00668405 35.8828L0.0122775 35.8858L0.0337848 35.8972L0.118172 35.9415C0.192851 35.9806 0.304413 36.0386 0.453118 36.1149C0.750528 36.2674 1.19651 36.4932 1.79314 36.7874C2.9864 37.3757 4.78224 38.2373 7.19726 39.3333C12.0273 41.5252 19.3341 44.6543 29.2503 48.4081C49.0828 55.9157 79.3531 65.9219 121.123 75.9267C204.664 95.9365 334.203 115.94 518.24 115.94V114.94C334.276 114.94 204.816 94.9445 121.356 74.9543C79.6266 64.9591 49.3968 54.9653 29.6043 47.4729C19.7081 43.7267 12.4211 40.6058 7.61051 38.4227C5.20522 37.3311 3.41903 36.4741 2.23533 35.8905C1.64349 35.5987 1.20226 35.3753 0.909584 35.2251C0.763245 35.15 0.654043 35.0933 0.581719 35.0554L0.500857 35.013L0.481109 35.0025L0.476395 35C0.476395 35 0.475117 34.9993 0.239823 35.4405ZM0.240246 75.4402C0.0238802 75.891 0.0260187 75.892 0.0260187 75.892L0.0315937 75.8947L0.0530652 75.9049L0.137379 75.9448C0.212009 75.9799 0.32352 76.0321 0.472173 76.1007C0.76948 76.238 1.21535 76.4412 1.81187 76.7058C3.0049 77.2352 4.8005 78.0106 7.21526 78.9969C12.0448 80.9694 19.3509 83.7853 29.2665 87.1635C49.0977 93.9199 79.3663 102.925 121.135 111.929C204.672 129.937 334.208 142.94 518.24 142.94V141.94C334.273 141.94 204.808 128.943 121.346 110.951C79.6141 101.955 49.3828 92.9606 29.589 86.2169C19.6921 82.8451 12.4045 80.0361 7.59336 78.0711C5.18781 77.0886 3.40137 76.3171 2.21745 75.7918C1.62549 75.5291 1.18416 75.328 0.891375 75.1928C0.744984 75.1252 0.635731 75.0741 0.563357 75.04L0.482423 75.0018L0.462639 74.9923L0.457907 74.9901C0.457907 74.9901 0.456611 74.9895 0.240246 75.4402ZM0.236097 338.439C0.234952 338.439 0.234379 338.439 0.234379 337.939C0.234379 337.439 0.234952 337.439 0.236097 337.439H518.234V338.439H0.236097ZM0.234379 372.939C0.234379 373.439 0.234952 373.439 0.236097 373.439H518.234V372.439H0.236097C0.234952 372.439 0.234379 372.439 0.234379 372.939ZM0.234379 405.939C0.234379 406.439 0.234952 406.439 0.236097 406.439H518.234V405.439H0.236097C0.234952 405.439 0.234379 405.439 0.234379 405.939ZM0.0887467 119.917C0.0874362 119.917 0.0866984 119.917 0.239086 119.441C0.391474 118.964 0.391881 118.965 0.39286 118.965L0.397682 118.966L0.417648 118.973L0.49895 118.998C0.57157 119.021 0.681071 119.055 0.827713 119.1C1.121 119.191 1.56284 119.325 2.15533 119.5C3.3403 119.851 5.12783 120.365 7.53451 121.021C12.3479 122.331 19.6379 124.205 29.5373 126.453C49.3362 130.95 79.573 136.948 121.31 142.946C204.785 154.942 334.261 166.941 518.239 166.941V167.941C334.217 167.941 204.694 155.939 121.168 143.936C79.4052 137.934 49.1419 131.931 29.3158 127.428C19.4028 125.177 12.099 123.3 7.27179 121.986C4.85816 121.328 3.06365 120.812 1.87167 120.459C1.27568 120.283 0.83032 120.148 0.533516 120.056C0.385114 120.01 0.273851 119.976 0.199468 119.952L0.115521 119.926L0.0942311 119.919L0.0887467 119.917ZM0.238015 159.44C0.133695 159.929 0.134387 159.929 0.135651 159.929L0.162149 159.935L0.245726 159.952C0.319862 159.968 0.430877 159.991 0.579031 160.021C0.875338 160.082 1.3202 160.172 1.91569 160.29C3.10667 160.525 4.90016 160.869 7.31277 161.307C12.138 162.183 19.4397 163.433 29.3507 164.934C49.1726 167.936 79.4317 171.937 121.19 175.938C204.708 183.939 334.224 191.94 518.238 191.94V190.94C334.252 190.94 204.768 182.94 121.286 174.942C79.5444 170.943 49.3034 166.944 29.5004 163.945C19.5988 162.446 12.3068 161.197 7.49138 160.323C5.08368 159.886 3.29514 159.543 2.10917 159.309C1.51618 159.192 1.07384 159.102 0.780055 159.042C0.633164 159.012 0.523415 158.989 0.450548 158.974L0.368877 158.956L0.343812 158.951C0.342786 158.951 0.342334 158.951 0.238015 159.44ZM0.178676 196.936C0.177461 196.936 0.176818 196.936 0.236391 196.44C0.295963 195.943 0.296465 195.943 0.29754 195.943L0.404964 195.956C0.478093 195.965 0.588103 195.978 0.735255 195.995C1.02956 196.028 1.47242 196.079 2.06593 196.145C3.25294 196.276 5.04251 196.47 7.45124 196.716C12.2687 197.208 19.5628 197.91 29.4663 198.754C49.2734 200.441 79.5182 202.691 121.263 204.94C204.753 209.44 334.245 213.94 518.236 213.94V214.94C334.228 214.94 204.719 210.439 121.209 205.939C79.4546 203.689 49.1994 201.438 29.3815 199.75C19.4725 198.906 12.1728 198.203 7.34966 197.71C4.93808 197.464 3.14562 197.271 1.95568 197.139C1.36071 197.073 0.916369 197.022 0.620584 196.988C0.472691 196.971 0.361937 196.958 0.288063 196.949L0.178676 196.936ZM0.235692 232.439C0.192521 232.938 0.193144 232.938 0.194341 232.938L0.303462 232.947C0.377236 232.953 0.487889 232.963 0.635681 232.975C0.931265 233 1.37541 233.036 1.97018 233.084C3.15972 233.179 4.95179 233.319 7.36298 233.497C12.1854 233.852 19.4843 234.36 29.3925 234.97C49.2089 236.189 79.4627 237.814 121.216 239.439C204.723 242.689 334.23 245.939 518.236 245.939V244.939C334.242 244.939 204.748 241.689 121.255 238.44C79.5087 236.815 49.2625 235.19 29.4539 233.972C19.5496 233.362 12.2548 232.855 7.43653 232.499C5.02741 232.322 3.23745 232.182 2.05004 232.087C1.45633 232.039 1.01326 232.003 0.718761 231.978L0.388168 231.951L0.280478 231.941C0.279385 231.941 0.278864 231.941 0.235692 232.439ZM0.225792 269.941C0.224631 269.941 0.224043 269.941 0.237371 269.441C0.2507 268.941 0.251256 268.941 0.252385 268.941L0.691721 268.953C0.986597 268.96 1.43003 268.972 2.02411 268.986C3.21225 269.016 5.00294 269.058 7.41278 269.113C12.2324 269.223 19.5287 269.379 29.4343 269.566C49.2456 269.941 79.4945 270.441 121.243 270.941C204.741 271.941 334.239 272.941 518.237 272.941V273.941C334.236 273.941 204.734 272.941 121.231 271.941C79.4803 271.441 49.2291 270.941 29.4154 270.566C19.5086 270.379 12.211 270.222 7.39009 270.113C4.97961 270.058 3.18827 270.015 1.99946 269.986C1.40506 269.971 0.96129 269.96 0.666078 269.952L0.225792 269.941ZM0.242579 305.441C0.241434 305.441 0.240862 305.441 0.240862 304.941C0.240862 304.441 0.241434 304.441 0.242579 304.441H518.241V305.441H0.242579ZM0.0197705 636.986C0.0184149 636.987 0.017632 636.987 0.233998 637.438C0.450363 637.889 0.450725 637.889 0.451659 637.888L0.456391 637.886L0.476175 637.877L0.557109 637.838C0.629483 637.804 0.738736 637.753 0.885126 637.686C1.17791 637.55 1.61924 637.349 2.2112 637.087C3.39512 636.561 5.18156 635.79 7.58711 634.807C12.3982 632.842 19.6858 630.033 29.5827 626.662C49.3766 619.918 79.6079 610.923 121.339 601.927C204.802 583.935 334.267 565.938 518.234 565.938V564.938C334.201 564.938 204.666 582.941 121.129 600.949C79.3601 609.953 49.0914 618.959 29.2603 625.715C19.3447 629.093 12.0385 631.909 7.20901 633.882C4.79425 634.868 2.99865 635.643 1.80562 636.173C1.20911 636.437 0.763232 636.641 0.465925 636.778C0.317272 636.846 0.20576 636.899 0.131131 636.934L0.046817 636.974L0.0253455 636.984L0.0197705 636.986ZM0.232604 593.438C0.080216 592.962 0.0809538 592.962 0.0822643 592.961L0.0877487 592.959L0.109038 592.953L0.192986 592.926C0.267369 592.903 0.378632 592.868 0.527034 592.822C0.823838 592.731 1.2692 592.596 1.86519 592.419C3.05717 592.067 4.85168 591.55 7.26531 590.893C12.0926 589.579 19.3963 587.702 29.3094 585.45C49.1354 580.947 79.3987 574.945 121.161 568.943C204.687 556.939 334.211 544.938 518.233 544.938V545.938C334.254 545.938 204.778 557.937 121.304 569.933C79.5665 575.931 49.3298 581.929 29.5308 586.426C19.6314 588.674 12.3414 590.547 7.52803 591.858C5.12134 592.513 3.33382 593.028 2.14885 593.378C1.55636 593.554 1.11451 593.688 0.821231 593.778C0.674589 593.823 0.565087 593.857 0.492467 593.88L0.411166 593.906L0.3912 593.912L0.386378 593.914C0.385398 593.914 0.384992 593.914 0.232604 593.438ZM0.1292 552.949C0.127935 552.95 0.127244 552.95 0.231563 553.439C0.335882 553.928 0.336335 553.928 0.33736 553.927L0.362425 553.922L0.444097 553.905C0.516964 553.89 0.626713 553.867 0.773603 553.837C1.06738 553.776 1.50973 553.687 2.10272 553.57C3.28869 553.336 5.07723 552.993 7.48493 552.556C12.3003 551.682 19.5924 550.432 29.4939 548.933C49.297 545.935 79.5379 541.936 121.279 537.937C204.762 529.938 334.246 521.939 518.232 521.939V520.939C334.217 520.939 204.701 528.939 121.184 536.941C79.4252 540.942 49.1661 544.943 29.3442 547.944C19.4332 549.445 12.1315 550.696 7.30632 551.572C4.89371 552.01 3.10022 552.354 1.90924 552.589C1.31375 552.706 0.868887 552.796 0.572579 552.857C0.424426 552.888 0.313411 552.911 0.239274 552.926L0.155697 552.944L0.1292 552.949ZM0.233845 516.439C0.174273 515.943 0.174915 515.943 0.176131 515.943L0.285518 515.93C0.359392 515.921 0.470146 515.908 0.618038 515.891C0.913823 515.857 1.35816 515.806 1.95313 515.74C3.14307 515.608 4.93553 515.415 7.34712 515.168C12.1703 514.676 19.4699 513.972 29.3789 513.128C49.1968 511.441 79.452 509.19 121.207 506.94C204.717 502.439 334.226 497.939 518.234 497.939V498.939C334.242 498.939 204.751 503.439 121.261 507.938C79.5157 510.188 49.2709 512.438 29.4638 514.125C19.5602 514.968 12.2662 515.671 7.4487 516.163C5.03997 516.409 3.2504 516.602 2.06339 516.734C1.46988 516.8 1.02701 516.85 0.732709 516.884C0.585558 516.901 0.475547 516.914 0.402419 516.923L0.294995 516.935C0.29392 516.936 0.293418 516.936 0.233845 516.439ZM0.191796 479.941C0.190599 479.941 0.189976 479.941 0.233147 480.439C0.276319 480.938 0.27684 480.937 0.277933 480.937L0.385623 480.928C0.458853 480.922 0.568964 480.913 0.716215 480.9C1.01072 480.876 1.45379 480.839 2.04749 480.792C3.2349 480.697 5.02486 480.557 7.43398 480.379C12.2522 480.024 19.5471 479.516 29.4513 478.907C49.2599 477.689 79.5061 476.064 121.253 474.439C204.745 471.189 334.239 467.939 518.233 467.939V466.939C334.227 466.939 204.721 470.189 121.214 473.44C79.4601 475.065 49.2064 476.69 29.3899 477.909C19.4817 478.519 12.1828 479.027 7.36044 479.382C4.94924 479.56 3.15717 479.7 1.96763 479.795C1.37286 479.843 0.92872 479.879 0.633136 479.904C0.485344 479.916 0.374691 479.925 0.300917 479.932L0.191796 479.941ZM0.23092 443.44C0.217591 442.94 0.218179 442.94 0.21934 442.94L0.659627 442.928C0.954838 442.921 1.39861 442.909 1.99301 442.895C3.18182 442.865 4.97316 442.823 7.38364 442.768C12.2046 442.658 19.5021 442.502 29.409 442.315C49.2227 441.94 79.4738 441.44 121.225 440.94C204.727 439.94 334.229 438.94 518.231 438.94V439.94C334.233 439.94 204.735 440.94 121.237 441.94C79.488 442.44 49.2392 442.939 29.4279 443.314C19.5222 443.502 12.226 443.658 7.40632 443.768C4.99649 443.822 3.2058 443.865 2.01766 443.894C1.42358 443.909 0.980146 443.92 0.68527 443.928L0.245934 443.939C0.244805 443.939 0.244248 443.939 0.23092 443.44Z" fill="url(#paint1_linear_9480_169752)"/>
</g>
<defs>
<linearGradient id="paint0_linear_9480_169752" x1="1607.5" y1="61" x2="950" y2="357.5" gradientUnits="userSpaceOnUse">
<stop stop-color="#3C5DC7"/>
<stop offset="0.119641" stop-color="#5B21FF"/>
<stop offset="0.288809" stop-color="#AA3FFF"/>
<stop offset="0.531073" stop-color="#E54190"/>
<stop offset="0.639675" stop-color="#F8522E"/>
<stop offset="0.921468" stop-color="#0D0E12"/>
</linearGradient>
<linearGradient id="paint1_linear_9480_169752" x1="9.50014" y1="225.5" x2="518" y2="362.5" gradientUnits="userSpaceOnUse">
<stop stop-color="#0742FE"/>
<stop offset="0.119641" stop-color="#5B21FF"/>
<stop offset="0.288809" stop-color="#AA3FFF"/>
<stop offset="0.453092" stop-color="#E54190"/>
<stop offset="0.639675" stop-color="#F8522E"/>
<stop offset="0.826875" stop-color="#0D0E12"/>
</linearGradient>
<clipPath id="clip0_9480_169752">
<rect width="1440" height="671" fill="white"/>
</clipPath>
<clipPath id="clip1_9480_169752">
<rect width="562" height="671" fill="white" transform="matrix(-1 0 0 1 1440 0)"/>
</clipPath>
</defs>
</svg>
