<svg width="29" height="26" viewBox="0 0 29 26" fill="none" xmlns="http://www.w3.org/2000/svg">
<path fill-rule="evenodd" clip-rule="evenodd" d="M28.477 3.90879C24.2118 6.08035 22.0792 8.63189 22.0792 11.5635C23.8971 11.7807 25.4004 12.5497 26.5891 13.8708C27.7778 15.1918 28.3721 16.7209 28.3721 18.4582C28.3721 20.304 27.7952 21.8603 26.6415 23.127C25.4878 24.3937 24.037 25.0271 22.2889 25.0271C20.3311 25.0271 18.6356 24.2037 17.2022 22.557C15.7688 20.9102 15.0521 18.9106 15.0521 16.5581C15.0521 9.50049 18.8628 3.98119 26.4842 0L28.477 3.90879ZM13.4249 3.90879C9.12468 6.08035 6.97463 8.63189 6.97463 11.5635C8.82755 11.7807 10.3483 12.5497 11.537 13.8708C12.7256 15.1918 13.32 16.7209 13.32 18.4582C13.32 20.304 12.7344 21.8603 11.5632 23.127C10.392 24.3937 8.93243 25.0271 7.18439 25.0271C5.22659 25.0271 3.53976 24.2037 2.12385 22.557C0.707944 20.9102 0 18.9106 0 16.5581C0 9.50049 3.79318 3.98119 11.3797 0L13.4249 3.90879Z" fill="#76BD6D"/>
</svg>
