<svg width="93" height="15" viewBox="0 0 93 15" fill="none" xmlns="http://www.w3.org/2000/svg">
<g clip-path="url(#clip0_558_28)">
<path d="M3.61261 14.9435C3.22661 15.1415 2.78861 14.7945 2.86661 14.3515L3.69661 9.6215L0.173606 6.2655C-0.155394 5.9515 0.0156068 5.3775 0.456606 5.3155L5.35461 4.6195L7.53861 0.2925C7.73561 -0.0975 8.26861 -0.0975 8.46561 0.2925L10.6496 4.6195L15.5476 5.3155C15.9886 5.3775 16.1596 5.9515 15.8296 6.2655L12.3076 9.6215L13.1376 14.3515C13.2156 14.7945 12.7776 15.1415 12.3916 14.9435L8.00061 12.6875L3.61161 14.9435H3.61261Z" fill="#fabc00"/>
<path d="M22.6126 14.9435C22.2266 15.1415 21.7886 14.7945 21.8666 14.3515L22.6966 9.6215L19.1736 6.2655C18.8446 5.9515 19.0156 5.3775 19.4566 5.3155L24.3546 4.6195L26.5386 0.2925C26.7356 -0.0975 27.2686 -0.0975 27.4656 0.2925L29.6496 4.6195L34.5476 5.3155C34.9886 5.3775 35.1596 5.9515 34.8296 6.2655L31.3076 9.6215L32.1376 14.3515C32.2156 14.7945 31.7776 15.1415 31.3916 14.9435L27.0006 12.6875L22.6116 14.9435H22.6126Z" fill="#fabc00"/>
<path d="M41.6126 14.9435C41.2266 15.1415 40.7886 14.7945 40.8666 14.3515L41.6966 9.6215L38.1736 6.2655C37.8446 5.9515 38.0156 5.3775 38.4566 5.3155L43.3546 4.6195L45.5386 0.2925C45.7356 -0.0975 46.2686 -0.0975 46.4656 0.2925L48.6496 4.6195L53.5476 5.3155C53.9886 5.3775 54.1596 5.9515 53.8296 6.2655L50.3076 9.6215L51.1376 14.3515C51.2156 14.7945 50.7776 15.1415 50.3916 14.9435L46.0006 12.6875L41.6116 14.9435H41.6126Z" fill="#fabc00"/>
<path d="M60.6126 14.9435C60.2266 15.1415 59.7886 14.7945 59.8666 14.3515L60.6966 9.6215L57.1736 6.2655C56.8446 5.9515 57.0156 5.3775 57.4566 5.3155L62.3546 4.6195L64.5386 0.2925C64.7356 -0.0975 65.2686 -0.0975 65.4656 0.2925L67.6496 4.6195L72.5476 5.3155C72.9886 5.3775 73.1596 5.9515 72.8296 6.2655L69.3076 9.6215L70.1376 14.3515C70.2156 14.7945 69.7776 15.1415 69.3916 14.9435L65.0006 12.6875L60.6116 14.9435H60.6126Z" fill="#fabc00"/>
<path d="M79.6126 14.9435C79.2266 15.1415 78.7886 14.7945 78.8666 14.3515L79.6966 9.6215L76.1736 6.2655C75.8446 5.9515 76.0156 5.3775 76.4566 5.3155L81.3546 4.6195L83.5386 0.2925C83.7356 -0.0975 84.2686 -0.0975 84.4656 0.2925L86.6496 4.6195L91.5476 5.3155C91.9886 5.3775 92.1596 5.9515 91.8296 6.2655L88.3076 9.6215L89.1376 14.3515C89.2156 14.7945 88.7776 15.1415 88.3916 14.9435L84.0006 12.6875L79.6116 14.9435H79.6126Z" fill="#fabc00"/>
</g>
<defs>
<clipPath id="clip0_558_28">
<rect width="93" height="15" fill="#fabc00"/>
</clipPath>
</defs>
</svg>
