<svg xmlns:xlink="http://www.w3.org/1999/xlink" width="113" height="23" viewBox="0 0 113 23" fill="none" xmlns="http://www.w3.org/2000/svg"><path d="M11.8044 1.03027L20.6396 22.6207H18.0325L10.2836 3.28382L2.38985 22.6207H0L8.98005 1.03027H11.8044Z" fill="#FFFFFF"></path><path d="M23.1021 22.6207V1.03027H25.4919V22.6207H23.1021Z" fill="#FFFFFF"></path><path d="M30.1992 22.6207V1.03027H39.3965C40.8449 1.03027 42.0761 1.32105 43.0899 1.82992C44.1038 2.33878 44.9729 3.06573 45.5522 4.01077C46.1316 4.95581 46.4212 6.04623 46.4212 7.28205C46.4212 8.73595 45.9867 9.89907 45.1901 10.9168C44.3935 11.9345 43.2348 12.6615 41.8588 13.0977L46.7109 22.6934H44.1038L39.469 13.3884H32.5891V22.6207H30.1992ZM32.5891 11.353H39.3241C40.7725 11.353 41.9312 10.9895 42.8003 10.2625C43.6693 9.53559 44.1038 8.51786 44.1038 7.28205C44.1038 6.04623 43.6693 5.0285 42.8003 4.30155C41.9312 3.5746 40.7725 3.21112 39.3241 3.21112H32.5891V11.353V11.353Z" fill="#FFFFFF"></path><path d="M50.042 22.6207V1.03027H52.4318V20.5125H65.2501V22.6207H50.042Z" fill="#FFFFFF"></path><path d="M68.6538 22.6207V1.03027H71.0437V22.6207H68.6538Z" fill="#FFFFFF"></path><path d="M84.2244 22.9842C82.4139 22.9842 80.8206 22.6207 79.5171 21.8211C78.2135 21.0214 77.1272 19.931 76.4755 18.5498C75.7513 17.0959 75.3892 15.4239 75.3892 13.5338V1.03027H77.779V13.5338C77.779 14.9877 78.0687 16.2962 78.5756 17.3867C79.0826 18.4771 79.8792 19.3494 80.8206 19.931C81.8345 20.5125 82.9208 20.8033 84.2968 20.8033C85.6003 20.8033 86.7591 20.5125 87.7729 19.931C88.7144 19.3494 89.511 18.4771 90.018 17.3867C90.5249 16.2962 90.8146 14.9877 90.8146 13.5338V1.03027H93.2044V13.5338C93.2044 15.4966 92.8423 17.1686 92.1181 18.5498C91.3939 20.0037 90.3801 21.0941 89.0765 21.8211C87.5557 22.6207 86.0349 22.9842 84.2244 22.9842Z" fill="#FFFFFF"></path><path d="M104.357 22.9841C102.619 22.9841 101.025 22.6206 99.4321 21.9663C97.8389 21.3121 96.5353 20.2943 95.3042 18.9858L96.8974 17.3138C97.9837 18.477 99.2149 19.422 100.446 20.0036C101.677 20.5851 103.053 20.8759 104.429 20.8759C105.588 20.8759 106.529 20.7305 107.398 20.367C108.267 20.0036 108.919 19.4947 109.426 18.8404C109.933 18.1862 110.15 17.4592 110.15 16.6596C110.15 15.5692 109.788 14.6968 108.992 14.1153C108.195 13.5337 106.964 13.0975 105.226 12.8068L102.112 12.2979C100.011 11.9344 98.4907 11.3528 97.5492 10.4805C96.5353 9.60817 96.1008 8.37235 96.1008 6.84576C96.1008 5.68264 96.3905 4.59221 97.0423 3.71987C97.6941 2.84753 98.5631 2.12058 99.7218 1.61172C100.881 1.10285 102.184 0.884766 103.705 0.884766C105.226 0.884766 106.747 1.10285 108.195 1.61172C109.643 2.12058 111.019 2.84753 112.178 3.71987L110.802 5.53725C108.412 3.71987 106.022 2.84753 103.56 2.84753C102.546 2.84753 101.605 2.99292 100.881 3.3564C100.084 3.64718 99.5045 4.08335 99.07 4.66491C98.6355 5.24647 98.4183 5.90072 98.4183 6.62767C98.4183 7.6454 98.7803 8.37235 99.4321 8.95391C100.084 9.46278 101.243 9.89895 102.763 10.117L105.805 10.6259C108.195 10.9894 109.861 11.7163 110.947 12.5887C112.033 13.5337 112.54 14.8422 112.54 16.5142C112.54 17.75 112.178 18.9131 111.526 19.8582C110.802 20.8032 109.861 21.6028 108.629 22.1117C107.398 22.6933 106.022 22.9841 104.357 22.9841Z" fill="#FFFFFF"></path></svg>