<svg width="24" height="25" viewBox="0 0 24 25" fill="none" xmlns="http://www.w3.org/2000/svg">
<path fill-rule="evenodd" clip-rule="evenodd" d="M2 12.5C2 18.0228 6.47715 22.5 12 22.5C17.5228 22.5 22 18.0228 22 12.5C22 6.97715 17.5228 2.5 12 2.5C6.47715 2.5 2 6.97715 2 12.5ZM4 12.5C4 8.08172 7.58172 4.5 12 4.5C16.4183 4.5 20 8.08172 20 12.5C20 16.9183 16.4183 20.5 12 20.5C7.58172 20.5 4 16.9183 4 12.5ZM16.7372 10.1757C17.1103 9.76861 17.0828 9.13604 16.6757 8.76285C16.2686 8.38965 15.636 8.41716 15.2628 8.82428L10.5359 13.981L8.76822 11.8598C8.41466 11.4355 7.78409 11.3782 7.35982 11.7318C6.93554 12.0853 6.87821 12.7159 7.23178 13.1402L9.73178 16.1402C9.91649 16.3618 10.1879 16.4929 10.4764 16.4997C10.7648 16.5065 11.0422 16.3884 11.2372 16.1757L16.7372 10.1757Z" fill="#F5D88E"/>
</svg>
