<svg width="156" height="37" viewBox="0 0 156 37" fill="none" xmlns="http://www.w3.org/2000/svg">
<g clip-path="url(#clip0)">
<path d="M56.1615 12.9559V15.0201H56.2256C56.9794 13.9149 58.2308 12.6133 61.0047 12.6133C63.1627 12.6133 64.8181 13.6957 65.5276 15.3307H65.5916C66.1976 14.5041 66.8923 13.8784 67.6708 13.4354C68.5921 12.9102 69.6169 12.6088 70.9077 12.6088C73.8294 12.6088 76.416 14.4812 76.416 19.2035V28.1594H71.9621V19.8292C71.9621 17.4361 71.0851 16.0523 69.2621 16.0523C67.9269 16.0523 66.9564 16.8835 66.5868 17.9065C66.4587 18.2581 66.3996 18.7377 66.3996 19.1396V28.164H61.9457V19.4912C61.9457 17.4589 61.1032 16.0477 59.3049 16.0477C57.8663 16.0477 56.9646 17.0981 56.5951 17.9978C56.4375 18.3815 56.3882 18.8245 56.3882 19.2401V28.1594H51.9294V12.9559H56.1615ZM99.4048 12.9559V15.8239H99.528C100.346 13.6318 102.287 12.6133 103.992 12.6133C104.42 12.6133 104.657 12.6453 105.002 12.7092V16.6917C104.593 16.6369 104.213 16.5821 103.681 16.5821C101.75 16.5821 100.405 17.6233 100.065 19.2538C99.9911 19.5917 99.9665 19.9571 99.9665 20.3772V28.164H95.3943V12.9559H99.4048ZM111.21 7.91846V12.7047H115.072V16.5775H111.21V22.2908C111.21 24.1404 111.717 25.0356 113.225 25.0356C113.934 25.0356 114.456 24.9534 114.91 24.8483L114.969 28.0589C114.363 28.269 113.072 28.4974 111.761 28.4974C110.219 28.4974 108.933 27.9996 108.15 27.2277C107.253 26.3463 106.839 24.9031 106.839 22.848V7.91846H111.21ZM48.8254 28.1594H44.3912V7.91846H48.8254V28.1594ZM37.0009 22.7292C37.0009 23.0078 36.9763 23.3001 36.8925 23.5513C36.5476 24.6063 35.3701 25.4968 33.9019 25.4968C32.6751 25.4968 31.6996 24.8529 31.6996 23.4874C31.6996 21.4002 34.1827 20.8202 37.0058 20.8339V22.7292H37.0009ZM41.4302 19.0893C41.4302 15.6413 39.8437 12.6133 34.4783 12.6133C31.7242 12.6133 29.5367 13.3304 28.3444 13.9697L29.2164 16.7373C30.3053 16.098 32.0445 15.5728 33.69 15.5728C36.4146 15.5682 36.858 17.0022 36.858 17.9202V18.1394C30.9211 18.1303 27.1718 20.0347 27.1718 23.9167C27.1718 26.2869 29.0785 28.5065 32.3992 28.5065C34.4438 28.5065 36.1485 27.7529 37.1733 26.5427H37.2719C37.2719 26.5427 37.9518 29.1687 41.6864 28.164C41.4893 27.0679 41.4252 25.9033 41.4252 24.5012V19.0893H41.4302ZM4.89732 7.91846C5.35552 10.0604 6.65622 16.2806 6.65622 16.2806C7.2031 18.8382 7.70565 21.519 8.08502 23.6381H8.15399C8.52351 21.3865 9.10488 19.2538 9.72567 16.614L11.9181 7.91846H16.7711L18.8207 16.8378C19.3577 19.3177 19.7864 21.2313 20.1263 23.5376H20.1904C20.5599 21.2084 21.0427 19.2172 21.5699 16.6688L23.5407 7.91846H28.1966L22.4272 28.1594C18.7517 28.9038 17.3426 27.5337 16.8401 25.3598C16.3375 23.1814 15.3522 19.0391 15.3522 19.0391C14.8447 16.7693 14.4506 15.1709 14.1746 12.8417H14.1057C13.7115 15.148 13.2977 16.7647 12.6867 19.0345L10.2676 28.164C6.51334 28.8582 5.21264 27.8306 4.49332 25.0401C3.87253 22.6516 0 7.92302 0 7.92302H4.89732V7.91846ZM88.004 22.7292C88.004 23.0078 87.9794 23.3001 87.8956 23.5513C87.5507 24.6063 86.3732 25.4968 84.905 25.4968C83.6782 25.4968 82.7027 24.8529 82.7027 23.4874C82.7027 21.4002 85.1858 20.8202 88.0089 20.8339V22.7292H88.004ZM92.4333 19.0893C92.4333 15.6413 90.8468 12.6133 85.4814 12.6133C82.7273 12.6133 80.5398 13.3304 79.3475 13.9697L80.2195 16.7373C81.3084 16.098 83.0476 15.5728 84.6931 15.5728C87.4128 15.5682 87.8611 17.0022 87.8611 17.9202V18.1394C81.9292 18.1303 78.1798 20.0347 78.1798 23.9167C78.1798 26.2869 80.0914 28.5065 83.4072 28.5065C85.447 28.5065 87.1566 27.7529 88.1764 26.5427H88.2799C88.2799 26.5427 88.9598 29.1687 92.6944 28.164C92.4973 27.0679 92.4333 25.9033 92.4333 24.5012V19.0893Z" fill="#76BD6D"/>
<path d="M133.047 21.1883C133.484 21.9275 133.455 22.7525 132.988 23.1293L124.924 28.6183C124.084 29.0904 122.827 28.5181 122.115 27.3211C121.398 26.1194 121.526 24.7793 122.365 24.3072L131.294 20.2727C131.854 20.0628 132.61 20.4491 133.047 21.1883ZM143.66 21.1883C144.102 20.4491 144.853 20.0676 145.413 20.2679L154.346 24.3024C155.186 24.7745 155.309 26.1146 154.597 27.3164C153.88 28.5134 152.618 29.0809 151.783 28.6135L143.719 23.1245C143.257 22.7525 143.223 21.9227 143.66 21.1883ZM138.351 24.1641C139.23 24.1641 139.952 24.6029 140.05 25.1799L140.919 34.7082C140.919 35.6524 139.785 36.425 138.356 36.425C136.932 36.425 135.792 35.6524 135.792 34.7082L136.657 25.1799C136.755 24.6029 137.477 24.1641 138.351 24.1641ZM143.719 13.3005L151.783 7.80672C152.618 7.3346 153.88 7.9021 154.597 9.10387C155.309 10.3056 155.186 11.6457 154.346 12.1178L145.413 16.1571C144.853 16.3574 144.097 15.9759 143.66 15.2367C143.223 14.4975 143.257 13.6725 143.719 13.3005ZM131.294 16.1571L122.365 12.1178C121.531 11.6457 121.403 10.3056 122.115 9.10387C122.827 7.9021 124.089 7.3346 124.924 7.80672L132.988 13.3005C133.455 13.6677 133.484 14.4975 133.047 15.2367C132.61 15.9759 131.854 16.3574 131.294 16.1571ZM136.657 11.2451L135.792 1.71681C135.792 0.772565 136.927 0 138.356 0C139.785 0 140.919 0.772565 140.919 1.71681L140.05 11.2451C139.952 11.8174 139.23 12.2609 138.351 12.2609C137.477 12.2609 136.755 11.8174 136.657 11.2451ZM156.777 28.5801V28.3417H156.998C157.072 28.3417 157.121 28.3894 157.121 28.4609C157.121 28.5277 157.072 28.5801 156.998 28.5801H156.777ZM156.596 29.0141C156.596 29.0379 156.615 29.0618 156.645 29.0618H156.738C156.762 29.0618 156.787 29.0379 156.787 29.0141V28.7423H156.939L157.062 29.0284C157.072 29.0475 157.087 29.0618 157.106 29.0618H157.219C157.254 29.0618 157.278 29.0284 157.263 28.995C157.219 28.9092 157.175 28.8186 157.131 28.728C157.204 28.7041 157.317 28.6326 157.317 28.4609C157.317 28.2797 157.165 28.1748 157.013 28.1748H156.645C156.62 28.1748 156.596 28.1986 156.596 28.2225V29.0141ZM156.198 28.6183C156.198 28.232 156.522 27.9172 156.92 27.9172C157.317 27.9172 157.642 28.2272 157.642 28.6183C157.642 29.0046 157.322 29.3193 156.92 29.3193C156.517 29.3193 156.198 29.0046 156.198 28.6183ZM156.026 28.6183C156.026 29.0952 156.424 29.4862 156.92 29.4862C157.411 29.4862 157.813 29.0952 157.813 28.6183C157.813 28.1414 157.411 27.7503 156.92 27.7503C156.424 27.7503 156.026 28.1414 156.026 28.6183Z" fill="#76BD6D"/>
</g>
<defs>
<clipPath id="clip0">
<rect width="157.813" height="36.425" fill="white"/>
</clipPath>
</defs>
</svg>
